<!-- SVG Icons for Signature Extractor Landing Page -->
<svg xmlns="http://www.w3.org/2000/svg" style="display: none;">

  <!-- Privacy Icon -->
  <symbol id="icon-privacy" viewBox="0 0 24 24">
    <path fill="currentColor" d="M12,1L3,5V11C3,16.55 6.84,21.74 12,23C17.16,21.74 21,16.55 21,11V5L12,1M12,7C13.4,7 14.8,8.6 14.8,10.5V11.5C15.4,11.5 16,12.1 16,13V16C16,16.6 15.6,17 15,17H9C8.4,17 8,16.6 8,16V13C8,12.1 8.4,11.5 9,11.5V10.5C9,8.6 10.6,7 12,7M12,8.2C11.2,8.2 10.2,9.2 10.2,10.5V11.5H13.8V10.5C13.8,9.2 12.8,8.2 12,8.2Z"/>
  </symbol>

  <!-- Precision Icon -->
  <symbol id="icon-precision" viewBox="0 0 24 24">
    <path fill="currentColor" d="M12,2A10,10 0 0,0 2,12A10,10 0 0,0 12,22A10,10 0 0,0 22,12A10,10 0 0,0 12,2M12,4A8,8 0 0,1 20,12A8,8 0 0,1 12,20A8,8 0 0,1 4,12A8,8 0 0,1 12,4M12,6A6,6 0 0,0 6,12A6,6 0 0,0 12,18A6,6 0 0,0 18,12A6,6 0 0,0 12,6M12,8A4,4 0 0,1 16,12A4,4 0 0,1 12,16A4,4 0 0,1 8,12A4,4 0 0,1 12,8Z"/>
  </symbol>

  <!-- PDF Integration Icon -->
  <symbol id="icon-pdf" viewBox="0 0 24 24">
    <path fill="currentColor" d="M14,2H6A2,2 0 0,0 4,4V20A2,2 0 0,0 6,22H18A2,2 0 0,0 20,20V8L14,2M18,20H6V4H13V9H18V20Z"/>
  </symbol>

  <!-- Lifetime Value Icon -->
  <symbol id="icon-lifetime" viewBox="0 0 24 24">
    <path fill="currentColor" d="M12,20A8,8 0 0,1 4,12A8,8 0 0,1 12,4A8,8 0 0,1 20,12A8,8 0 0,1 12,20M12,2A10,10 0 0,0 2,12A10,10 0 0,0 12,22A10,10 0 0,0 22,12A10,10 0 0,0 12,2M12.5,7V12.25L17,14.92L16.25,16.15L11,13V7H12.5Z"/>
  </symbol>

  <!-- Upload Icon -->
  <symbol id="icon-upload" viewBox="0 0 24 24">
    <path fill="currentColor" d="M9,16V10H5L12,3L19,10H15V16H9M5,20V18H19V20H5Z"/>
  </symbol>

  <!-- Select Icon -->
  <symbol id="icon-select" viewBox="0 0 24 24">
    <path fill="currentColor" d="M15,3V7H18L14,11H18V15H14L10,19V15H6V11H10V7H6V3H10V7H14V3H15Z"/>
  </symbol>

  <!-- Adjust Icon -->
  <symbol id="icon-adjust" viewBox="0 0 24 24">
    <path fill="currentColor" d="M15,7H16.63A3.31,3.31 0 0,1 19,10.37A3.31,3.31 0 0,1 16.63,13.73H15V15H13V13.73H12V15H10V13.73H9V15H7V13.73H5.37A3.31,3.31 0 0,1 3,10.37A3.31,3.31 0 0,1 5.37,7H7V5H9V7H10V5H12V7H13V5H15V7M12,9A1,1 0 0,0 11,10A1,1 0 0,0 12,11A1,1 0 0,0 13,10A1,1 0 0,0 12,9Z"/>
  </symbol>

  <!-- Extract Icon -->
  <symbol id="icon-extract" viewBox="0 0 24 24">
    <path fill="currentColor" d="M12,2A7,7 0 0,1 19,9C19,11.38 17.81,13.47 16,14.74V17A1,1 0 0,1 15,18H9A1,1 0 0,1 8,17V14.74C6.19,13.47 5,11.38 5,9A7,7 0 0,1 12,2M9,21V20H15V21A1,1 0 0,1 14,22H10A1,1 0 0,1 9,21M12,4A5,5 0 0,0 7,9C7,11.05 8.23,12.81 10,13.58V16H14V13.59C15.77,12.82 17,11.06 17,9A5,5 0 0,0 12,4Z"/>
  </symbol>

  <!-- Export Icon -->
  <symbol id="icon-export" viewBox="0 0 24 24">
    <path fill="currentColor" d="M5,20H19V18H5M19,9H15V3H9V9H5L12,16L19,9Z"/>
  </symbol>

  <!-- Legal Icon -->
  <symbol id="icon-legal" viewBox="0 0 24 24">
    <path fill="currentColor" d="M19 3H5C3.89 3 3 3.89 3 5V19C3 20.1 3.89 21 5 21H19C20.1 21 21 20.1 21 19V5C21 3.89 20.1 3 19 3M12 12C10.34 12 9 13.34 9 15S10.34 18 12 18 15 16.66 15 15 13.66 12 12 12M6 6H18V13H6V6Z"/>
  </symbol>

  <!-- Real Estate Icon -->
  <symbol id="icon-real-estate" viewBox="0 0 24 24">
    <path fill="currentColor" d="M19 9.3V4H5V13H3V4C3 2.9 3.9 2 5 2H19C20.1 2 21 2.9 21 4V9.3C20.4 9.1 19.7 9 19 9M15 10H5V14H15V10M17 15H5V17H17V15M19 11V13H22V11H19M5 17V19H7V17H5M11 17V19H13V17H11M15 17V19H17V17H15M19 17V19H21V17H19M19 13V15H21V13H19M15 13V15H17V13H15M11 13V15H13V13H11M7 13V15H9V13H7M3 13V20C3 21.1 3.9 22 5 22H19C20.1 22 21 21.1 21 20V13H3Z"/>
  </symbol>

  <!-- Healthcare Icon -->
  <symbol id="icon-healthcare" viewBox="0 0 24 24">
    <path fill="currentColor" d="M19 3H5C3.9 3 3 3.9 3 5V19C3 20.1 3.9 21 5 21H19C20.1 21 21 20.1 21 19V5C21 3.9 20.1 3 19 3M19 19H5V5H19V19Z"/>
    <path fill="currentColor" d="M15.5 11H13V8.5C13 8.2 12.8 8 12.5 8S12 8.2 12 8.5V11H9.5C9.2 11 9 11.2 9 11.5S9.2 12 9.5 12H12V14.5C12 14.8 12.2 15 12.5 15S13 14.8 13 14.5V12H15.5C15.8 12 16 11.8 16 11.5S15.8 11 15.5 11Z"/>
  </symbol>

</svg>